# xmcd
#
# Track frame offsets: 
#        150
#        15018
#        29598
#        42179
#        60765
#        82518
#        101702
#        117450
#        131084
#        145621
#        157375
#        179113
#        198745
#        216366
#        234636
#        250759
#        264795
#        281265
#
# Disc length: 3910 seconds
#
# Revision: 0
# Processed by: cddbd v1.5.2PL0 Copyright (c) Steve Scherf et al.
# Submitted via: ExactAudioCopy v1.0b1
#
DISCID=f70f4412
DTITLE=Joseph Arthur - Nuclear Daydream
DYEAR=2009
DGENRE=Blues
TTITLE0=Too much to hide
TTITLE1=Black lexus
TTITLE2=Enough to get away
TTITLE3=Slide away
TTITLE4=Electrical storm
TTITLE5=You are free
TTITLE6=Automatic situation
TTITLE7=When was running out of time
TTITLE8=Don't tell our eyes
TTITLE9=Don't give up on people
TTITLE10=Woman
TTITLE11=Nuclear daydream
TTITLE12=Can't let you stay
TTITLE13=Moon in the skull
TTITLE14=Flashing lights and cockpits
TTITLE15=My eyes follow you
TTITLE16=I love you
TTITLE17=Hard to see
EXTD=
EXTT0=
EXTT1=
EXTT2=
EXTT3=
EXTT4=
EXTT5=
EXTT6=
EXTT7=
EXTT8=
EXTT9=
EXTT10=
EXTT11=
EXTT12=
EXTT13=
EXTT14=
EXTT15=
EXTT16=
EXTT17=
PLAYORDER=
